<?xml version="1.0" encoding="utf-8"?>
<!-- Generator: Adobe Illustrator 23.0.1, SVG Export Plug-In . SVG Version: 6.00 Build 0)  -->
<svg version="1.1" id="Layer_1" xmlns="http://www.w3.org/2000/svg" xmlns:xlink="http://www.w3.org/1999/xlink" x="0px" y="0px"
	 viewBox="0 0 505.6 545.6" style="enable-background:new 0 0 505.6 545.6;" xml:space="preserve">
<g>
	<g>
		<path d="M425,257.4c-5.5,16.2,0.4,34.8,15.5,44.4c17.7,11.4,41.4,6.2,52.8-11.5l6.3-9.8c11.4-17.7,6.2-41.4-11.5-52.8
			c-15.1-9.7-34.4-7.4-46.9,4.4l-17.7-11.4l20.2-28.4l-3-7.6c-1.1-2.9-28.7-70.9-95.6-113.9S204.8,31.1,201.7,31.3l-8.1,0.4
			l-17.4,30.2l-17.7-11.4c5.5-16.2-0.4-34.8-15.5-44.4c-17.7-11.4-41.4-6.2-52.8,11.5l-6.3,9.8c-11.4,17.7-6.2,41.4,11.5,52.8
			c15.1,9.7,34.4,7.4,46.9-4.4l18.9,12.2l-53.8,93L84.2,166c5.5-16.2-0.4-34.8-15.5-44.4c-17.7-11.4-41.4-6.2-52.8,11.5l-6.3,9.8
			c-11.4,17.7-6.2,41.4,11.5,52.8c15.1,9.7,34.4,7.4,46.9-4.4l24.3,15.6l-53.8,93l-0.1,0c-0.1,0.4-0.2,0.8-0.5,1.2
			c-3.6,6.1-7.4,13.3-12,19.7c-0.9,1.7-1.8,3.4-2.8,5l0.3,0.2l-9.3,16l12.4,74.5L0,457.8L25.2,474l21.6-33.6l86.2,55.4l-21.6,33.6
			l25.2,16.2l26.5-41.3l72.9-19.8l10.3-14.5c0.3-0.6,0.6-1.1,1-1.7c1.7-2.5,3.6-4.8,5.5-7.2c3.3-5.2,6.7-10.3,10.8-14.9
			c0.1-0.6,0.4-1.2,0.8-1.6l62-87.3l24.3,15.6c-5.5,16.2,0.4,34.8,15.5,44.4c17.7,11.4,41.4,6.2,52.8-11.5l6.3-9.8
			c11.4-17.7,6.2-41.4-11.5-52.8c-15.1-9.7-34.4-7.4-46.9,4.4l-23.1-14.9l62.2-87.6L425,257.4z M460.6,255.5
			c2.4-3.8,7.5-4.9,11.3-2.5c3.8,2.4,4.9,7.5,2.5,11.3l-6.3,9.8c-2.4,3.8-7.5,4.9-11.3,2.5c-3.8-2.4-4.9-7.5-2.5-11.3L460.6,255.5z
			 M122.8,52.4c-2.4,3.8-7.5,4.9-11.3,2.5s-4.9-7.5-2.5-11.3l6.3-9.8c2.4-3.8,7.5-4.9,11.3-2.5s4.9,7.5,2.5,11.3L122.8,52.4z
			 M48.6,167.9c-2.4,3.8-7.5,4.9-11.3,2.5s-4.9-7.5-2.5-11.3l6.3-9.8c2.4-3.8,7.5-4.9,11.3-2.5c3.8,2.4,4.9,7.5,2.5,11.3L48.6,167.9
			z M217.9,458.3L156.2,475L56,410.6l-10.4-63L211.1,61.2c19.3,0.5,70.7,4.7,117.7,34.9c46.7,30,72.1,75.2,80.6,92.5L217.9,458.3z
			 M386.4,371c2.4-3.8,7.5-4.9,11.3-2.5c3.8,2.4,4.9,7.5,2.5,11.3l-6.3,9.8c-2.4,3.8-7.5,4.9-11.3,2.5c-3.8-2.4-4.9-7.5-2.5-11.3
			L386.4,371z"/>
	</g>
</g>
<g>
	<g>
		<path d="M254.4,87.9c-16.4-10.6-38.4-5.8-49,10.7c-10.6,16.4-5.8,38.4,10.7,49c16.4,10.6,38.4,5.8,49-10.7
			C275.6,120.4,270.9,98.4,254.4,87.9z M232.3,122.3c-2.5-1.6-3.3-5-1.6-7.5c1.6-2.5,5-3.3,7.5-1.6c2.5,1.6,3.3,5,1.6,7.5
			C238.2,123.2,234.8,123.9,232.3,122.3z"/>
	</g>
</g>
<g>
	<g>
		<path d="M185.4,206.8c-16.4-10.6-38.4-5.8-49,10.7c-10.6,16.4-5.8,38.4,10.7,49c16.4,10.6,38.4,5.8,49-10.7
			C206.7,239.3,201.9,217.3,185.4,206.8z M163.3,241.2c-2.5-1.6-3.3-5-1.6-7.5c1.6-2.5,5-3.3,7.5-1.6c2.5,1.6,3.3,5,1.6,7.5
			C169.2,242.1,165.9,242.8,163.3,241.2z"/>
	</g>
</g>
<g>
	<g>
		<path d="M367.3,160.4c-16.4-10.6-38.4-5.8-49,10.7c-10.6,16.4-5.8,38.4,10.7,49c16.4,10.6,38.4,5.8,49-10.7
			C388.5,192.9,383.7,170.9,367.3,160.4z M345.1,194.8c-2.5-1.6-3.3-5-1.6-7.5c1.6-2.5,5-3.3,7.5-1.6c2.5,1.6,3.3,5,1.6,7.5
			C351.1,195.7,347.7,196.4,345.1,194.8z"/>
	</g>
</g>
<g>
	<g>
		<path d="M287.8,272.5c-16.4-10.6-38.4-5.8-49,10.7c-10.6,16.4-5.8,38.4,10.7,49c16.4,10.6,38.4,5.8,49-10.7
			C309.1,305.1,304.3,283.1,287.8,272.5z M265.7,306.9c-2.5-1.6-3.3-5-1.6-7.5c1.6-2.5,5-3.3,7.5-1.6c2.5,1.6,3.3,5,1.6,7.5
			C271.6,307.8,268.3,308.6,265.7,306.9z"/>
	</g>
</g>
<rect x="73.2" y="172" transform="matrix(0.5404 -0.8414 0.8414 0.5404 -116.3394 159.9089)" width="30" height="28.9"/>
</svg>
