<svg height="512pt" viewBox="0 -16 512 512" width="512pt" xmlns="http://www.w3.org/2000/svg"><path d="m256.011719 270.015625c-41.355469 0-75.003907 33.644531-75.003907 75.003906 0 41.355469 33.648438 75.003907 75.003907 75.003907 41.359375 0 75.003906-33.648438 75.003906-75.003907 0-41.359375-33.644531-75.003906-75.003906-75.003906zm0 120.003906c-24.8125 0-45-20.1875-45-45 0-24.816406 20.1875-45.003906 45-45.003906 24.816406 0 45.003906 20.1875 45.003906 45.003906 0 24.8125-20.1875 45-45.003906 45zm0 0"/><path d="m512 60.003906v-30.003906h-60.976562v-30h-30v30h-60.003907v30.003906h60.003907v30h-120.007813v30.003906h-90.003906v-30.003906h-120.007813v-30h60.003906v-30.003906h-60.003906v-30h-30v30h-61.003906v30.003906h61.003906v30h-30.003906v180.011719h30.003906v180.007813h-30.003906v30h97.507812l30.730469-40.972657c24.546875 25.253907 58.855469 40.972657 96.773438 40.972657s72.230469-15.71875 96.777343-40.972657l30.730469 40.972657h97.304688v-30h-29.800781v-180.007813h30v-180.011719h-30v-30zm-60.976562 60.003906v30h-120.007813v-30zm-150.007813 97.726563c-9.554687-3.390625-19.601563-5.730469-30-6.886719v-60.839844h30zm-60.003906-67.726563v60.839844c-10.398438 1.15625-20.445313 3.496094-30 6.886719v-67.726563zm-69.75 90.003907h-110.257813v-60.003907h120.003906v52.808594c-3.359374 2.253906-6.609374 4.660156-9.746093 7.195313zm9.746093-120.003907v30h-120.003906v-30zm-67.5 330.015626h-22.503906v-180.007813h52.808594c-14.394531 21.464844-22.804688 47.269531-22.804688 75.003906 0 25.347657 7.027344 49.082031 19.226563 69.367188zm142.503907 0c-57.898438 0-105.003907-47.105469-105.003907-105.003907 0-57.902343 47.105469-105.007812 105.003907-105.007812 57.902343 0 105.007812 47.105469 105.007812 105.007812 0 57.898438-47.105469 105.003907-105.007812 105.003907zm165.011719 0h-22.503907l-26.726562-35.636719c12.199219-20.285157 19.226562-44.019531 19.226562-69.367188 0-27.734375-8.410156-53.539062-22.804687-75.003906h52.808594zm-80.257813-210.011719c-3.136719-2.539063-6.386719-4.941407-9.75-7.195313v-52.808594h120.007813v60.003907zm0 0"/></svg>