<?xml version="1.0" encoding="iso-8859-1"?>
<!-- Generator: Adobe Illustrator 19.0.0, SVG Export Plug-In . SVG Version: 6.00 Build 0)  -->
<svg version="1.1" id="Layer_1" xmlns="http://www.w3.org/2000/svg" xmlns:xlink="http://www.w3.org/1999/xlink" x="0px" y="0px"
	 viewBox="0 0 512 512" style="enable-background:new 0 0 512 512;" xml:space="preserve">
<g>
	<g>
		<path d="M424.084,113.746c4.115,16.642,19.167,29.02,37.062,29.02c21.053,0,38.181-17.128,38.181-38.181V92.906
			c0-21.053-17.128-38.181-38.181-38.181c-17.895,0-32.948,12.378-37.062,29.021h-21.092l1.627-34.822l-6.613-4.75
			C395.493,42.37,335.583,0,256,0S116.507,42.37,113.995,44.174l-6.613,4.75l1.627,34.822H87.917
			c-4.115-16.642-19.167-29.02-37.063-29.02c-21.053,0-38.181,17.128-38.181,38.181v11.679c0,21.053,17.128,38.181,38.181,38.181
			c17.895,0,32.947-12.378,37.062-29.02h22.494l5.013,107.301H87.917c-4.115-16.642-19.167-29.02-37.062-29.02
			c-21.053,0-38.181,17.128-38.181,38.181v11.679c0,21.053,17.128,38.181,38.181,38.181c17.895,0,32.948-12.378,37.062-29.021
			h28.908l5.013,107.302H87.917c-4.115-16.642-19.167-29.02-37.062-29.02c-21.053,0-38.181,17.128-38.181,38.181v11.679
			c0,21.053,17.128,38.181,38.181,38.181c17.895,0,32.948-12.378,37.062-29.021h35.322l0.864,18.487l50.67,56.035V512h30v-39.905
			h102.455V512h30v-49.129l50.67-56.035l0.864-18.487h35.322c4.115,16.642,19.167,29.021,37.062,29.021
			c21.053,0,38.181-17.128,38.181-38.181V367.51c0-21.053-17.128-38.181-38.181-38.181c-17.895,0-32.947,12.378-37.062,29.02
			h-33.921l5.013-107.302h28.908c4.115,16.642,19.167,29.021,37.062,29.021c21.053,0,38.181-17.128,38.181-38.181v-11.679
			c0-21.053-17.128-38.181-38.181-38.181c-17.895,0-32.947,12.378-37.062,29.02h-27.506l5.012-107.301H424.084z M452.965,92.906
			c0-4.511,3.67-8.181,8.181-8.181s8.181,3.67,8.181,8.181v11.679c0,4.511-3.67,8.181-8.181,8.181s-8.181-3.67-8.181-8.181V92.906z
			 M59.035,104.585c0,4.511-3.67,8.181-8.181,8.181s-8.181-3.67-8.181-8.181V92.906c0-4.511,3.67-8.181,8.181-8.181
			s8.181,3.67,8.181,8.181V104.585z M59.035,241.887c0,4.511-3.67,8.181-8.181,8.181s-8.181-3.67-8.181-8.181v-11.679
			c0-4.511,3.67-8.181,8.181-8.181s8.181,3.67,8.181,8.181V241.887z M59.035,379.188c0,4.511-3.67,8.181-8.181,8.181
			s-8.181-3.67-8.181-8.181V367.51c0-4.511,3.67-8.181,8.181-8.181s8.181,3.67,8.181,8.181V379.188z M358.433,394.691
			l-42.864,47.403H196.432l-42.864-47.403l-15.437-330.43C154.629,54.218,200.206,30,256,30c55.514,0,101.312,24.258,117.868,34.285
			L358.433,394.691z M452.965,367.51c0-4.511,3.67-8.181,8.181-8.181s8.181,3.67,8.181,8.181v11.679c0,4.511-3.67,8.181-8.181,8.181
			s-8.181-3.67-8.181-8.181V367.51z M452.965,230.208c0-4.511,3.67-8.181,8.181-8.181s8.181,3.67,8.181,8.181v11.679
			c0,4.511-3.67,8.181-8.181,8.181s-8.181-3.67-8.181-8.181V230.208z"/>
	</g>
</g>
<g>
	<g>
		<path d="M188.944,63.292c-19.549,0-35.453,15.904-35.453,35.454c0,19.549,15.905,35.453,35.453,35.453
			c19.55,0,35.454-15.904,35.454-35.453C224.398,79.196,208.494,63.292,188.944,63.292z M188.944,104.199
			c-3.007,0-5.453-2.446-5.453-5.453c0-3.008,2.447-5.454,5.453-5.454c3.008,0,5.454,2.446,5.454,5.454
			C194.398,101.753,191.952,104.199,188.944,104.199z"/>
	</g>
</g>
<g>
	<g>
		<path d="M195.146,200.594c-19.549,0-35.453,15.904-35.453,35.453c-0.001,19.55,15.904,35.454,35.453,35.454
			s35.453-15.904,35.453-35.454C230.599,216.498,214.695,200.594,195.146,200.594z M195.146,241.501
			c-3.007,0-5.453-2.446-5.453-5.454c-0.001-3.007,2.446-5.453,5.453-5.453c3.007,0,5.453,2.446,5.453,5.453
			C200.599,239.055,198.153,241.501,195.146,241.501z"/>
	</g>
</g>
<g>
	<g>
		<path d="M201.981,337.896c-19.549,0-35.453,15.904-35.453,35.453c0,19.55,15.904,35.454,35.453,35.454
			c19.55,0,35.454-15.904,35.454-35.454C237.436,353.8,221.531,337.896,201.981,337.896z M201.981,378.803
			c-3.007,0-5.453-2.446-5.453-5.454c0-3.007,2.446-5.453,5.453-5.453c3.008,0,5.454,2.446,5.454,5.453
			C207.436,376.356,204.989,378.803,201.981,378.803z"/>
	</g>
</g>
<g>
	<g>
		<path d="M323.056,63.292c-19.55,0-35.454,15.904-35.454,35.454c0,19.549,15.904,35.453,35.454,35.453
			c19.549,0,35.453-15.904,35.453-35.453C358.509,79.196,342.605,63.292,323.056,63.292z M323.056,104.199
			c-3.008,0-5.454-2.446-5.454-5.453c0-3.008,2.446-5.454,5.454-5.454c3.007,0,5.453,2.446,5.453,5.454
			C328.509,101.753,326.063,104.199,323.056,104.199z"/>
	</g>
</g>
<g>
	<g>
		<path d="M316.854,200.594c-19.549,0-35.453,15.904-35.453,35.453c0,19.55,15.905,35.454,35.453,35.454
			c19.549,0,35.453-15.904,35.453-35.454C352.307,216.498,336.403,200.594,316.854,200.594z M316.854,241.501
			c-3.007,0-5.453-2.446-5.453-5.454c0-3.007,2.447-5.453,5.453-5.453c3.007,0,5.453,2.446,5.453,5.453
			C322.307,239.055,319.861,241.501,316.854,241.501z"/>
	</g>
</g>
<g>
	<g>
		<path d="M310.019,337.896c-19.55,0-35.454,15.904-35.454,35.453c-0.001,19.549,15.904,35.454,35.454,35.454
			c19.549,0,35.453-15.904,35.453-35.454C345.472,353.8,329.568,337.896,310.019,337.896z M310.019,378.803
			c-3.008,0-5.454-2.446-5.454-5.454c-0.001-3.007,2.446-5.453,5.454-5.453c3.007,0,5.453,2.446,5.453,5.453
			C315.472,376.357,313.026,378.803,310.019,378.803z"/>
	</g>
</g>
<g>
</g>
<g>
</g>
<g>
</g>
<g>
</g>
<g>
</g>
<g>
</g>
<g>
</g>
<g>
</g>
<g>
</g>
<g>
</g>
<g>
</g>
<g>
</g>
<g>
</g>
<g>
</g>
<g>
</g>
</svg>
