<?xml version="1.0" encoding="iso-8859-1"?>
<!-- Generator: Adobe Illustrator 19.0.0, SVG Export Plug-In . SVG Version: 6.00 Build 0)  -->
<svg version="1.1" id="Capa_1" xmlns="http://www.w3.org/2000/svg" xmlns:xlink="http://www.w3.org/1999/xlink" x="0px" y="0px"
	 viewBox="0 0 512 512" style="enable-background:new 0 0 512 512;" xml:space="preserve">
<g>
	<g>
		<path d="M382.03,0c-71.666,0-129.97,58.305-129.97,129.97c0,0.203,0,0.407,0.001,0.61L55.32,376.911l29.279,29.279L0,490.789
			L21.211,512l84.599-84.599l29.279,29.279L381.42,259.94c0.204,0.001,0.407,0.001,0.61,0.001c71.666,0,129.97-58.306,129.97-129.97
			C512,58.305,453.695,0,382.03,0z M137.331,416.499l-41.83-41.83l18.869-23.624l46.586,46.586L137.331,416.499z M184.54,378.794
			l-51.333-51.333l97.544-122.13l75.919,75.919L184.54,378.794z M330.256,262.412l-80.667-80.667l18.867-23.624l85.424,85.424
			L330.256,262.412z M382.692,229.935L282.065,129.308c0.143-21.908,7.368-42.165,19.499-58.594l139.722,139.722
			C424.857,222.566,404.601,229.791,382.692,229.935z M462.496,189.226L322.775,49.504c16.594-12.253,37.091-19.507,59.255-19.507
			c55.125,0,99.973,44.848,99.973,99.973C482.002,152.134,474.749,172.632,462.496,189.226z"/>
	</g>
</g>
<g>
	<g>
		
			<rect x="209.198" y="265.389" transform="matrix(0.7071 -0.7071 0.7071 0.7071 -130.4238 245.9058)" width="44.848" height="29.997"/>
	</g>
</g>
<g>
</g>
<g>
</g>
<g>
</g>
<g>
</g>
<g>
</g>
<g>
</g>
<g>
</g>
<g>
</g>
<g>
</g>
<g>
</g>
<g>
</g>
<g>
</g>
<g>
</g>
<g>
</g>
<g>
</g>
</svg>
